<svg width="255" height="255" viewBox="0 0 255 255" xmlns="http://www.w3.org/2000/svg"><g fill="none" fill-rule="evenodd"><path stroke="#36499B" stroke-width="8" d="M8.333 99.88l45.47 146.978h147.134l45.465-146.977L127.368 9.042z"/><path d="M121.167 182.456c-11.992 0-17.99-5.58-17.99-14.471 0-8.478 4.756-13.648 19.232-15.3l14.057-1.655c5.584-.61 9.505-1.86 12.188-4.343v9.72c0 18.607-13.648 26.06-27.499 26.06m57.063 16.128c-2.894-4.135-4.342-12.613-4.342-20.262v-56.867c0-19.228-12.61-32.048-44.458-32.048-33.27 0-46.5 13.862-47.948 36.39h25.635c1.035-13.03 7.24-16.955 22.126-16.955 15.092 0 19.434 4.963 19.434 13.233 0 7.857-5.17 10.958-15.092 12.2l-16.127 1.444c-30.185 2.894-40.94 15.507-40.94 33.29 0 20.672 15.714 32.047 38.456 32.047 15.713 0 27.295-5.584 34.324-15.51.414 5.17 1.238 10.133 2.894 13.03l26.038.008z" fill="#36499B" fill-rule="nonzero"/></g></svg>