<svg width="255" height="255" viewBox="0 0 255 255" xmlns="http://www.w3.org/2000/svg"><g transform="translate(9 9)" fill="none" fill-rule="evenodd"><path d="M141.775 156.512v13.3h28.975V66.975h-28.975v13.3c-9.738-15.2-25.175-16.625-33.013-16.625-30.4 0-51.062 24.225-51.062 54.625 0 30.162 20.9 54.862 52.487 54.862 7.363 0 21.138-1.662 31.588-16.625zm-25.65-9.024c-16.625 0-28.5-12.826-28.5-29.213 0-16.388 11.875-28.975 28.5-28.975s28.5 12.588 28.5 28.975-11.875 29.213-28.5 29.213z" fill="#3F4EA9" fill-rule="nonzero" style="mix-blend-mode:multiply"/><circle stroke="#3F4EA9" stroke-width="12.35" cx="118.5" cy="118.5" r="118.5"/></g></svg>