<svg width="255" height="255" viewBox="0 0 255 255" xmlns="http://www.w3.org/2000/svg"><g fill="none" fill-rule="evenodd"><path d="M127.13 195.39c19.95 0 36.48-16.34 36.48-36.29 0-14.06-7.41-25.27-18.81-31.73 11.02-6.27 18.81-17.29 18.81-31.73 0-19.95-16.53-36.29-36.48-36.29H95.21c-2.85 0-4.56 2.28-4.56 4.56v126.92c0 2.85 2.28 4.56 4.56 4.56h31.92zm0-72.58H99.77V68.47h27.36c15.2 0 27.36 11.97 27.36 27.17 0 15.2-12.35 27.17-27.36 27.17zm0 63.46H99.77v-54.34h27.36c15.01 0 27.36 11.97 27.36 27.17 0 15.2-12.16 27.17-27.36 27.17z" fill="#3F4EA9" fill-rule="nonzero" style="mix-blend-mode:multiply"/><path stroke="#3F4EA9" stroke-width="12.35" style="mix-blend-mode:multiply" d="M8 9h237.5v237.5H8z"/></g></svg>