<svg width="255" height="255" viewBox="0 0 255 255" xmlns="http://www.w3.org/2000/svg"><g transform="translate(8 9)" fill="none" fill-rule="evenodd"><circle stroke="#36499B" stroke-width="9" cx="119.04" cy="119.04" r="118.749"/><path d="M131.17 166.942H93.685V128.27h37.483c14.331 0 22.97 6.281 22.97 19.437 0 12.169-8.05 19.236-22.97 19.236m-2.75-96c13.744 0 20.811 7.278 20.811 17.671 0 11.58-7.067 18.844-20.812 18.844H93.672V70.94h34.746zm28.468 44.368c11.584-5.888 18.65-16.293 18.65-30.038 0-19.04-12.958-36.122-45.154-36.122H67.168v139.783h65.373c32.985 0 48.688-16.1 48.688-40.052 0-13.938-7.853-27.483-24.342-33.571" fill="#36499B" fill-rule="nonzero"/></g></svg>