<svg width="255" height="255" viewBox="0 0 255 255" xmlns="http://www.w3.org/2000/svg"><g fill="none" fill-rule="evenodd"><path stroke="#36499B" stroke-width="9" d="M9.312 9.312h237.591v237.591H9.312z"/><path d="M127.899 91.969c15.76 0 25.218 10.517 27.317 25.845h-54.424c2.52-17.86 13.025-25.845 27.107-25.845m53.793 38.033c0-34.461-20.384-58.627-53.583-58.627-32.151 0-53.587 22.693-53.587 56.738 0 34.668 22.067 56.738 54.008 56.738 26.055 0 44.967-14.081 50.432-36.144h-25.429c-3.992 9.664-12.188 15.55-24.793 15.55-15.343 0-26.27-8.616-28.159-27.948h81.111v-6.307z" fill="#36499B" fill-rule="nonzero"/></g></svg>