<svg width="255" height="255" viewBox="0 0 255 255" xmlns="http://www.w3.org/2000/svg"><g fill="none" fill-rule="evenodd"><path d="M117.3 191.78c14.63 0 27.93-12.73 27.93-26.98 0-2.28-.76-3.61-3.8-4.56l-20.52-7.22-3.23 2.28-.76 2.28c-3.42 9.88-10.07 17.48-18.05 19-.76-1.52-.95-3.23-.95-5.32 0-10.45 8.17-27.74 16.34-43.51l5.51 17.67 3.04 2.28c7.79-4.18 32.68-6.46 31.16-11.4l-6.08-20.52-3.04-2.28c-5.7 3.04-19.76 4.75-26.98 7.41 5.32-10.26 9.88-19.19 11.4-24.32 8.74 6.27 17.48 9.31 27.36 9.31 13.68 0 23.75-15.2 23.75-30.02 0-2.28-.76-3.61-3.8-4.56l-20.33-7.22-3.42 2.28v1.52c0 7.6-3.99 21.47-12.92 22.42-2.28-2.66-1.52-17.1-5.89-18.62l-22.23-7.6-3.42 2.28-.19 1.52c-1.52 19.38-33.63 53.77-33.63 83.6 0 24.32 19.19 40.28 42.75 40.28z" fill="#3F4EA9" fill-rule="nonzero" style="mix-blend-mode:multiply"/><path stroke="#3F4EA9" stroke-width="12.35" style="mix-blend-mode:multiply" d="M9 9h237.5v237.5H9z"/></g></svg>